# xmcd
#
# Track frame offsets:
#	150
#	19442
#	37532
#	54272
#	72367
#	96530
#	116232
#	136145
#	153493
#	167578
#	184360
#	202050
#	220123
#	240754
#	248491
#	262201
#	279261
#	311953
#
# Disc length: 4639 seconds
#
# Revision: 0
# Processed by: cddbd v1.4PL0 Copyright (c) Steve Scherf et al.
# Submitted via: dBpowerAMP V4.0
#
DISCID=04121d12
DTITLE=Janis Joplin - Anthology
DYEAR=1982
DGENRE=Blues
TTITLE0=Piece of My Heart
TTITLE1=Summertime
TTITLE2=Maybe
TTITLE3=Try (Just a Little Bit Harder)
TTITLE4=To Love Somebody
TTITLE5=Kozmic Blues
TTITLE6=Turtle Blues
TTITLE7=Oh, Sweet Mary
TTITLE8=Little Girl Blue
TTITLE9=Move
TTITLE10=Half Moon
TTITLE11=Cry Baby
TTITLE12=Me and Bobby McGee
TTITLE13=Mercedes Benz - Live
TTITLE14=Down on Me
TTITLE15=Bye Bye Baby
TTITLE16=Get It While You Can
TTITLE17=Bailand Chain
EXTD=
EXTT0=
EXTT1=
EXTT2=
EXTT3=
EXTT4=
EXTT5=
EXTT6=
EXTT7=
EXTT8=
EXTT9=
EXTT10=
EXTT11=
EXTT12=
EXTT13=
EXTT14=
EXTT15=
EXTT16=
EXTT17=
PLAYORDER=
